<svg width="30" height="19" viewBox="0 0 30 19" fill="none" xmlns="http://www.w3.org/2000/svg">
<rect width="30" height="19" rx="3" fill="#306FC8"/>
<mask id="mask0_18282_60911" style="mask-type:alpha" maskUnits="userSpaceOnUse" x="0" y="0" width="30" height="19">
<rect width="30" height="19" rx="3" fill="url(#paint0_linear_18282_60911)"/>
</mask>
<g mask="url(#mask0_18282_60911)">
<path d="M12.9837 13.9144V11.1484L11.6915 12.5106L12.9837 13.9144Z" fill="white"/>
<path d="M7.56805 11.4951V12.1177L9.41572 12.114V12.8271H7.56805V13.5101H9.63944L10.6038 12.4989L9.67801 11.4951H7.56805Z" fill="white"/>
<path d="M15.4177 6.25473C15.5257 6.19435 15.5913 6.0736 15.5913 5.92644C15.5913 5.77927 15.5218 5.67362 15.4177 5.61702C15.3174 5.56041 15.167 5.55664 15.0165 5.55664H13.975V6.32642H15.0049C15.167 6.32642 15.302 6.31887 15.4177 6.25473Z" fill="white"/>
<path d="M1.5506 6.79736H2.70394L2.12534 5.42383L1.5506 6.79736Z" fill="white"/>
<path d="M14.9278 11.4951H13.8285V12.363H14.9201C15.2403 12.363 15.4409 12.2121 15.4409 11.914C15.437 11.6159 15.2287 11.4951 14.9278 11.4951Z" fill="white"/>
<path d="M1.7666 8.1976H2.49178L2.81965 8.97115H5.65479V8.3825L5.90937 8.97115H7.37516L7.62974 8.37495V8.97115H14.6732V7.71083H14.8121C14.9124 7.71083 14.9394 7.72215 14.9394 7.87686V8.97115H18.5807V8.67305C18.87 8.82776 19.3252 8.97115 19.9346 8.97115H21.466L21.7977 8.1976H22.5229L22.8508 8.97115H25.7939V8.23911L26.2452 8.97115H28.6098V4.15625H26.2722V4.72227L25.9366 4.15625H23.5335V4.72227L23.2404 4.15625H19.9925C19.4447 4.15625 18.9626 4.22795 18.5807 4.43171V4.15625H16.3435V4.43171C16.0812 4.22417 15.7533 4.15625 15.383 4.15625H7.19386L6.63841 5.39771L6.08295 4.15625H3.50625V4.72227L3.2131 4.15625H1.01442L-6.10352e-05 6.43918V8.97115H1.43872L1.7666 8.1976ZM18.7389 5.23923C19.0089 4.96377 19.4409 4.83547 20.0233 4.83547H20.8295V5.57506H20.0388C19.7263 5.57506 19.5528 5.62034 19.3869 5.7826C19.2403 5.92599 19.14 6.20145 19.14 6.5637C19.14 6.9335 19.2133 7.19387 19.3792 7.37499C19.5026 7.51083 19.7379 7.55234 19.9655 7.55234H20.3435L21.5316 4.83547H22.7891L24.2201 8.10326V4.83547H25.5085L26.9897 7.23915V4.83547H27.8576V8.29194H26.6541L25.061 5.70336V8.29194H23.3445L23.0205 7.51838H21.2654L20.9414 8.29194H19.9616C19.5489 8.29194 19.0282 8.1976 18.735 7.90705C18.438 7.61272 18.2875 7.21651 18.2875 6.59012C18.2875 6.07693 18.3801 5.60902 18.7389 5.23923ZM17.0108 4.83547H17.8748V8.29194H17.0108V4.83547ZM13.1342 4.83547H15.0782C15.5064 4.83547 15.8227 4.85056 16.0927 5.0015C16.3627 5.15621 16.5286 5.38262 16.5286 5.76751C16.5286 6.31466 16.1506 6.59766 15.9269 6.68445C16.112 6.75237 16.2702 6.8769 16.3435 6.97878C16.463 7.14481 16.4823 7.3033 16.4823 7.60517V8.29194H15.6337V7.85422C15.6337 7.65045 15.653 7.34858 15.4948 7.18632C15.3753 7.0618 15.1901 7.03538 14.8815 7.03538H13.9751V8.29194H13.1303V4.83547H13.1342ZM9.73199 4.83547H12.5478V5.55619H10.5729V6.17881H12.4977V6.88822H10.5729V7.57121L12.5478 7.56744V8.28816H9.73199V4.83547ZM0.925699 8.29194H0.00765363L1.51587 4.83547H2.77336L4.20443 8.10326V4.83547H5.58536L6.6847 7.17877L7.69917 4.83547H9.10324V8.29194H8.2392V5.58638L7.01643 8.29194H6.27582L5.04919 5.58261V8.29194H3.32882L3.0048 7.51838H1.24971L0.925699 8.29194Z" fill="white"/>
<path d="M22.141 5.42383L21.5662 6.79736H22.7157L22.141 5.42383Z" fill="white"/>
<path d="M28.1314 11.575C28.0427 11.6316 28.0042 11.7146 28.0042 11.8241C28.0042 11.9524 28.0813 12.0429 28.1893 12.0807C28.2742 12.1109 28.3706 12.1184 28.5133 12.1184L28.9646 12.1297C29.4314 12.141 29.7399 12.2165 29.929 12.409C29.956 12.4354 29.9791 12.4618 29.9984 12.4882V11.5146H28.467C28.3166 11.5146 28.2124 11.5222 28.1314 11.575Z" fill="white"/>
<path d="M28.8606 14.2276H27.2328V13.488H28.8528C29.011 13.488 29.1229 13.4654 29.1923 13.405C29.2501 13.3522 29.2926 13.2767 29.2926 13.1786C29.2926 13.0767 29.2501 12.9975 29.1884 12.9484C29.1267 12.8956 29.038 12.873 28.8953 12.873C28.1084 12.8503 27.117 12.8994 27.117 11.8013C27.117 11.307 27.4372 10.7749 28.3244 10.7749H30.0023V10.0957H28.4401C27.9734 10.0957 27.6224 10.2014 27.3832 10.3712V10.0957H25.0804C24.7139 10.0957 24.2742 10.1825 24.0697 10.3712V10.0957H19.9463V10.3712C19.6184 10.1448 19.0668 10.0957 18.8045 10.0957H16.0851V10.3712C15.8266 10.1259 15.2557 10.0957 14.9047 10.0957H11.8574L11.1593 10.8353L10.5112 10.0957H5.96729V14.9106H10.4302L11.1438 14.1597L11.8227 14.9068L14.5691 14.9106V13.7748H14.843C15.2056 13.7748 15.6376 13.7673 16.0118 13.6088V14.9106H18.2876V13.6503H18.3995C18.5383 13.6503 18.5499 13.6616 18.5499 13.7899V14.9106H25.4352C25.8673 14.9106 26.334 14.8012 26.5886 14.605V14.9106H28.7718C29.2231 14.9106 29.6706 14.8465 30.01 14.688V13.7937C29.7902 14.088 29.4044 14.2276 28.8606 14.2276ZM14.8739 13.0729H13.8247V14.2276H12.1814L11.1477 13.0918L10.0676 14.2314H6.72332V10.7749H10.1178L11.1515 11.9107L12.2277 10.7749H14.9279C15.5913 10.7749 16.3435 10.9636 16.3435 11.9183C16.3397 12.873 15.6106 13.0729 14.8739 13.0729ZM19.9501 12.9182C20.0697 13.0843 20.089 13.2427 20.0928 13.5446V14.2276H19.2442V13.7899C19.2442 13.5861 19.2635 13.2843 19.1054 13.122C18.9819 12.9975 18.8006 12.9711 18.492 12.9711H17.5856V14.2276H16.7408V10.7711H18.6849C19.1131 10.7711 19.4255 10.7862 19.6994 10.941C19.9694 11.0957 20.1353 11.3221 20.1353 11.707C20.1353 12.2541 19.7572 12.5371 19.5374 12.6239C19.7225 12.6918 19.8807 12.8164 19.9501 12.9182ZM23.4179 11.4956H21.4468V12.1183H23.3754V12.8314H21.4468V13.5144H23.4217V14.2314H20.6059V10.7749H23.4217V11.4956H23.4179ZM25.5625 14.2276H23.9193V13.488H25.5548C25.713 13.488 25.8248 13.4654 25.8943 13.405C25.9521 13.3522 25.9946 13.2767 25.9946 13.1786C25.9946 13.0767 25.9521 12.9975 25.8904 12.9484C25.8287 12.8956 25.74 12.873 25.5972 12.873C24.8104 12.8503 23.819 12.8994 23.819 11.8013C23.819 11.3032 24.1392 10.7749 25.0264 10.7749H26.7159V11.5145H25.1691C25.0148 11.5145 24.9145 11.5183 24.8296 11.5711C24.7409 11.6277 24.7062 11.7107 24.7062 11.8202C24.7062 11.9485 24.7834 12.039 24.8914 12.0768C24.9801 12.1069 25.0727 12.1145 25.2154 12.1145L25.6667 12.1258C26.1334 12.1371 26.442 12.2126 26.631 12.405C26.7969 12.5786 26.8856 12.7786 26.8856 13.1371C26.8895 13.8767 26.4189 14.2276 25.5625 14.2276Z" fill="white"/>
<path d="M19.0282 11.5517C18.9279 11.4989 18.7736 11.4951 18.627 11.4951H17.5855V12.2649H18.6154C18.7774 12.2649 18.9163 12.2611 19.0282 12.197C19.1362 12.1366 19.2017 12.0159 19.2017 11.8687C19.1979 11.7177 19.1323 11.6121 19.0282 11.5517Z" fill="white"/>
</g>
<defs>
<linearGradient id="paint0_linear_18282_60911" x1="15" y1="0" x2="15" y2="19" gradientUnits="userSpaceOnUse">
<stop stop-color="#1B8ABA"/>
<stop offset="1" stop-color="#005D9C"/>
</linearGradient>
</defs>
</svg>
