<svg width="30" height="19" viewBox="0 0 30 19" fill="none" xmlns="http://www.w3.org/2000/svg">
<rect width="30" height="19" rx="3" fill="#0F3560"/>
<path d="M17.6179 14.17H12.3684V4.83398H17.6179V14.17Z" fill="#DA604C"/>
<path d="M12.7047 9.50097C12.7047 7.60712 13.6008 5.92013 14.9962 4.83296C13.9758 4.03797 12.6879 3.56347 11.2884 3.56347C7.97499 3.56347 5.28912 6.22174 5.28912 9.50097C5.28912 12.7802 7.97499 15.4385 11.2884 15.4385C12.6879 15.4385 13.9758 14.964 14.9962 14.169C13.6008 13.0818 12.7047 11.3948 12.7047 9.50097Z" fill="#FF316F"/>
<path d="M24.6978 9.50097C24.6978 12.7802 22.012 15.4385 18.6986 15.4385C17.299 15.4385 16.0112 14.964 14.9904 14.169C16.3862 13.0818 17.2822 11.3948 17.2822 9.50097C17.2822 7.60712 16.3862 5.92013 14.9904 4.83296C16.0112 4.03797 17.299 3.56347 18.6986 3.56347C22.012 3.56347 24.6978 6.22174 24.6978 9.50097Z" fill="#F79E1B"/>
<path d="M9.80351 9.53861C9.80351 9.27926 9.97526 9.0662 10.2559 9.0662C10.524 9.0662 10.7051 9.27008 10.7051 9.53861C10.7051 9.80715 10.524 10.011 10.2559 10.011C9.97526 10.011 9.80351 9.79796 9.80351 9.53861ZM11.0107 9.53861V8.80085H10.6865V8.97999C10.5837 8.84713 10.4276 8.76375 10.2156 8.76375C9.79744 8.76375 9.46967 9.08811 9.46967 9.53861C9.46967 9.98947 9.79744 10.3135 10.2156 10.3135C10.4276 10.3135 10.5837 10.2301 10.6865 10.0972V10.2764H11.0107V9.53861ZM21.9666 9.53861C21.9666 9.27926 22.1383 9.0662 22.419 9.0662C22.6875 9.0662 22.8682 9.27008 22.8682 9.53861C22.8682 9.80715 22.6875 10.011 22.419 10.011C22.1383 10.011 21.9666 9.79796 21.9666 9.53861ZM23.1741 9.53861V8.2083H22.8496V8.97999C22.7468 8.84713 22.5907 8.76375 22.3786 8.76375C21.9605 8.76375 21.6327 9.08811 21.6327 9.53861C21.6327 9.98947 21.9605 10.3135 22.3786 10.3135C22.5907 10.3135 22.7468 10.2301 22.8496 10.0972V10.2764H23.1741V9.53861ZM15.0351 9.05101C15.244 9.05101 15.3782 9.18068 15.4125 9.40894H14.6388C14.6734 9.19588 14.8041 9.05101 15.0351 9.05101ZM15.0415 8.76375C14.6045 8.76375 14.2988 9.07857 14.2988 9.53861C14.2988 10.0078 14.617 10.3135 15.0633 10.3135C15.2879 10.3135 15.4935 10.258 15.6746 10.1068L15.5157 9.86898C15.3907 9.96756 15.2315 10.0234 15.0819 10.0234C14.873 10.0234 14.6827 9.92763 14.6359 9.66193H15.7431C15.7463 9.622 15.7495 9.58172 15.7495 9.53861C15.7463 9.07857 15.4593 8.76375 15.0415 8.76375ZM18.9563 9.53861C18.9563 9.27926 19.128 9.0662 19.4086 9.0662C19.6768 9.0662 19.8578 9.27008 19.8578 9.53861C19.8578 9.80715 19.6768 10.011 19.4086 10.011C19.128 10.011 18.9563 9.79796 18.9563 9.53861ZM20.1635 9.53861V8.80085H19.8393V8.97999C19.7361 8.84713 19.5804 8.76375 19.3683 8.76375C18.9502 8.76375 18.6224 9.08811 18.6224 9.53861C18.6224 9.98947 18.9502 10.3135 19.3683 10.3135C19.5804 10.3135 19.7361 10.2301 19.8393 10.0972V10.2764H20.1635V9.53861ZM17.1253 9.53861C17.1253 9.98629 17.4402 10.3135 17.9208 10.3135C18.1454 10.3135 18.295 10.264 18.4571 10.1375L18.3014 9.87817C18.1797 9.96473 18.0518 10.011 17.9112 10.011C17.6523 10.0078 17.462 9.82269 17.462 9.53861C17.462 9.25453 17.6523 9.06938 17.9112 9.0662C18.0518 9.0662 18.1797 9.11249 18.3014 9.19906L18.4571 8.93971C18.295 8.81321 18.1454 8.76375 17.9208 8.76375C17.4402 8.76375 17.1253 9.09094 17.1253 9.53861ZM21.3053 8.76375C21.1182 8.76375 20.9965 8.85031 20.9122 8.97999V8.80085H20.5909V10.2764H20.9154V9.44922C20.9154 9.20506 21.0215 9.06938 21.2336 9.06938C21.2993 9.06938 21.3678 9.07857 21.4364 9.10648L21.5363 8.80403C21.4646 8.77611 21.371 8.76375 21.3053 8.76375ZM12.6142 8.91815C12.4582 8.81639 12.2433 8.76375 12.0062 8.76375C11.6284 8.76375 11.3853 8.94289 11.3853 9.23616C11.3853 9.47678 11.5663 9.62518 11.8998 9.67147L12.053 9.69302C12.2308 9.71775 12.3147 9.76404 12.3147 9.84743C12.3147 9.96155 12.1961 10.0266 11.9748 10.0266C11.7502 10.0266 11.5881 9.95555 11.4788 9.87216L11.326 10.122C11.5038 10.2516 11.7284 10.3135 11.9715 10.3135C12.4022 10.3135 12.6517 10.1128 12.6517 9.83188C12.6517 9.57253 12.4554 9.43685 12.1308 9.39056L11.978 9.36866C11.8377 9.35028 11.7252 9.32272 11.7252 9.22379C11.7252 9.11567 11.8312 9.05101 12.009 9.05101C12.1994 9.05101 12.3836 9.12203 12.4739 9.1775L12.6142 8.91815ZM16.7975 8.76375C16.6104 8.76375 16.4887 8.85031 16.4047 8.97999V8.80085H16.0834V10.2764H16.4076V9.44922C16.4076 9.20506 16.5136 9.06938 16.7257 9.06938C16.7914 9.06938 16.86 9.07857 16.9285 9.10648L17.0285 8.80403C16.9568 8.77611 16.8632 8.76375 16.7975 8.76375ZM14.0307 8.80085H13.5005V8.35317H13.1727V8.80085H12.8703V9.09412H13.1727V9.76722C13.1727 10.1096 13.3069 10.3135 13.6904 10.3135C13.8311 10.3135 13.9932 10.2704 14.096 10.1993L14.0025 9.92445C13.9057 9.97993 13.7997 10.0078 13.7154 10.0078C13.5533 10.0078 13.5005 9.90891 13.5005 9.76086V9.09412H14.0307V8.80085ZM9.18295 10.2764V9.35028C9.18295 9.00154 8.95836 8.76693 8.59631 8.76375C8.406 8.76057 8.20962 8.81922 8.07215 9.02627C7.96932 8.86268 7.80722 8.76375 7.57942 8.76375C7.42017 8.76375 7.2645 8.81003 7.14274 8.98281V8.80085H6.81818V10.2764H7.1456V9.4584C7.1456 9.20224 7.28913 9.0662 7.51086 9.0662C7.72617 9.0662 7.83507 9.20506 7.83507 9.45522V10.2764H8.16284V9.4584C8.16284 9.20224 8.31245 9.0662 8.52775 9.0662C8.74913 9.0662 8.85517 9.20506 8.85517 9.45522V10.2764H9.18295Z" fill="white"/>
</svg>
