<svg width="91" height="24" viewBox="0 0 91 24" fill="none" xmlns="http://www.w3.org/2000/svg">
<path d="M10.8078 0.000761032H3.80248C3.32302 0.000761032 2.91537 0.349125 2.84057 0.822512L0.00729529 18.786C-0.0490564 19.1403 0.225523 19.46 0.585004 19.46H3.92945C4.40882 19.46 4.81647 19.1117 4.89127 18.6375L5.6554 13.7925C5.7292 13.3181 6.13785 12.9698 6.61622 12.9698H8.83389C13.4485 12.9698 16.1117 10.7368 16.8073 6.31173C17.1207 4.37574 16.8206 2.85466 15.914 1.78938C14.9184 0.619478 13.1524 0.000761032 10.8078 0.000761032ZM11.616 6.5617C11.2329 9.0754 9.31226 9.0754 7.45515 9.0754H6.39808L7.13966 4.38093C7.18375 4.09716 7.42953 3.8882 7.71638 3.8882H8.20084C9.46586 3.8882 10.6593 3.8882 11.2759 4.60925C11.6436 5.03953 11.7563 5.67868 11.616 6.5617Z" fill="#283B82"/>
<path d="M31.748 6.48098H28.3934C28.1077 6.48098 27.8609 6.68996 27.8166 6.97371L27.6683 7.91198L27.4336 7.57187C26.7074 6.51781 25.0878 6.16551 23.4715 6.16551C19.7645 6.16551 16.5983 8.97316 15.9817 12.9117C15.6611 14.8763 16.1169 16.7549 17.2314 18.065C18.2536 19.2696 19.7163 19.7715 21.4568 19.7715C24.4437 19.7715 26.1 17.851 26.1 17.851L25.9504 18.7831C25.894 19.1396 26.1686 19.4592 26.5262 19.4592H29.5477C30.0282 19.4592 30.4338 19.1109 30.5097 18.6367L32.3227 7.15497C32.3802 6.80156 32.1066 6.48098 31.748 6.48098ZM27.072 13.01C26.7484 14.9265 25.2272 16.2131 23.2873 16.2131C22.3131 16.2131 21.5346 15.9006 21.0346 15.3086C20.5389 14.7206 20.3504 13.8838 20.5082 12.9516C20.8103 11.0515 22.3572 9.72302 24.2674 9.72302C25.2201 9.72302 25.9944 10.0395 26.5046 10.6366C27.0158 11.2399 27.2184 12.0819 27.072 13.01Z" fill="#283B82"/>
<path d="M49.6142 6.48088H46.2433C45.9216 6.48088 45.6194 6.64067 45.4371 6.90808L40.7877 13.7567L38.817 7.1754C38.693 6.76356 38.313 6.48088 37.8828 6.48088H34.5702C34.1675 6.48088 33.888 6.87418 34.016 7.25319L37.7291 18.1499L34.2382 23.078C33.9636 23.4661 34.2402 24 34.7146 24H38.0816C38.4011 24 38.7003 23.8442 38.8815 23.582L50.0936 7.39771C50.362 7.01043 50.0866 6.48088 49.6142 6.48088Z" fill="#283B82"/>
<path d="M60.7752 0.000761032H53.7688C53.2905 0.000761032 52.8827 0.349125 52.8079 0.822512L49.9747 18.786C49.9185 19.1403 50.1929 19.46 50.5504 19.46H54.1458C54.4797 19.46 54.7656 19.2163 54.8178 18.8844L55.6218 13.7925C55.6955 13.3181 56.1043 12.9698 56.5826 12.9698H58.7993C63.4148 12.9698 66.0771 10.7368 66.7736 6.31173C67.0882 4.37574 66.786 2.85466 65.8794 1.78938C64.8848 0.619478 63.1199 0.000761032 60.7752 0.000761032ZM61.5835 6.5617C61.2013 9.0754 59.2809 9.0754 57.4226 9.0754H56.3666L57.1092 4.38093C57.1533 4.09716 57.3969 3.8882 57.6848 3.8882H58.1693C59.4334 3.8882 60.6277 3.8882 61.2443 4.60925C61.6121 5.03953 61.7237 5.67868 61.5835 6.5617Z" fill="#469BDB"/>
<path d="M81.7145 6.48098H78.3619C78.0741 6.48098 77.8291 6.68996 77.7862 6.97371L77.6376 7.91198L77.4021 7.57187C76.6759 6.51781 75.0574 6.16551 73.4411 6.16551C69.7339 6.16551 66.5689 8.97316 65.9521 12.9117C65.6326 14.8763 66.0864 16.7549 67.2009 18.065C68.2253 19.2696 69.6858 19.7715 71.4261 19.7715C74.4131 19.7715 76.0694 17.851 76.0694 17.851L75.9198 18.7831C75.8636 19.1396 76.138 19.4592 76.4977 19.4592H79.5184C79.9967 19.4592 80.4045 19.1109 80.4793 18.6367L82.2933 7.15497C82.3484 6.80156 82.074 6.48098 81.7145 6.48098ZM77.0384 13.01C76.7167 14.9265 75.1936 16.2131 73.2536 16.2131C72.2814 16.2131 71.5009 15.9006 71.001 15.3086C70.5054 14.7206 70.3188 13.8838 70.4747 12.9516C70.7788 11.0515 72.3235 9.72302 74.234 9.72302C75.1865 9.72302 75.9608 10.0395 76.471 10.6366C76.9841 11.2399 77.1869 12.0819 77.0384 13.01Z" fill="#469BDB"/>
<path d="M85.6695 0.493601L82.7941 18.786C82.7379 19.1403 83.0123 19.46 83.3699 19.46H86.2605C86.7409 19.46 87.1487 19.1117 87.2224 18.6375L90.0576 0.675049C90.114 0.320488 89.8396 -8.96454e-05 89.4821 -8.96454e-05H86.2451C85.9593 0.000766754 85.7135 0.209995 85.6695 0.493601Z" fill="#469BDB"/>
</svg>
