<svg width="30" height="19" viewBox="0 0 30 19" fill="none" xmlns="http://www.w3.org/2000/svg">
<rect width="30" height="19" rx="3" fill="#00579F"/>
<path d="M13.48 12.7867H11.633L12.7882 6.23438H14.6351L13.48 12.7867Z" fill="white"/>
<path d="M20.1753 6.39419C19.811 6.26162 19.2332 6.11523 18.5187 6.11523C16.6948 6.11523 15.4104 7.00742 15.4025 8.28298C15.3874 9.22408 16.3221 9.74679 17.0212 10.0606C17.7358 10.3812 17.9787 10.5905 17.9787 10.8763C17.9714 11.3153 17.4013 11.5176 16.8695 11.5176C16.1322 11.5176 15.737 11.4133 15.1366 11.1691L14.8934 11.0644L14.6349 12.5353C15.0681 12.7163 15.8662 12.8769 16.6948 12.884C18.6328 12.884 19.8944 12.0056 19.9094 10.6463C19.9168 9.9004 19.4232 9.32886 18.3591 8.86183C17.7131 8.56203 17.3175 8.35987 17.3175 8.05312C17.325 7.77425 17.6521 7.48863 18.3813 7.48863C18.9817 7.47464 19.4229 7.60703 19.7571 7.73951L19.9241 7.80909L20.1753 6.39419Z" fill="white"/>
<path d="M22.6301 10.4654C22.7822 10.089 23.3675 8.63216 23.3675 8.63216C23.3598 8.64615 23.5193 8.24879 23.6105 8.00485L23.7395 8.56944C23.7395 8.56944 24.0893 10.1378 24.1652 10.4654C23.8766 10.4654 22.9949 10.4654 22.6301 10.4654ZM24.9099 6.23438H23.4813C23.0407 6.23438 22.706 6.35278 22.5159 6.77802L19.7725 12.7866H21.7105C21.7105 12.7866 22.0295 11.9779 22.0981 11.8037C22.3107 11.8037 24.196 11.8037 24.4695 11.8037C24.5225 12.0338 24.6898 12.7866 24.6898 12.7866H26.3999L24.9099 6.23438Z" fill="white"/>
<path d="M10.0903 6.23438L8.28153 10.7024L8.08388 9.79626C7.74947 8.75065 6.7007 7.61462 5.53033 7.04976L7.18711 12.7798H9.14022L12.0433 6.23438H10.0903Z" fill="white"/>
<path d="M6.60195 6.23438H3.63038L3.59998 6.36677C5.91799 6.91051 7.45317 8.22118 8.0839 9.79654L7.43792 6.78516C7.33157 6.36667 7.00473 6.24818 6.60195 6.23438Z" fill="#FAA61A"/>
</svg>
