<?xml version="1.0" encoding="UTF-8"?>
<svg id="Layer_1" data-name="Layer 1" xmlns="http://www.w3.org/2000/svg" viewBox="0 0 165.66 221.06">
  <defs>
    <style>
      .cls-1 {
        fill: #4794d0;
        stroke-width: 0px;
      }
    </style>
  </defs>
  <path class="cls-1" d="M163.27,4.09v39.06c0,7.19-2.86,14.11-8.03,19.11-8.05,7.77-17.79,14.71-29.56,19.69-2.68,1.14-5.39,2.14-8.17,3.02v-35.11c0-25.27,20.49-45.76,45.76-45.76Z"/>
  <path class="cls-1" d="M2.46,146.01c-.06-1.56-.08-3.16-.08-4.77V1.13h3.02c23.6,0,42.74,19.13,42.74,42.74v68.06c0,3.35-2.16,6.3-5.33,7.36-15.7,5.28-29.57,14.6-40.35,26.71Z"/>
  <path class="cls-1" d="M163.27,80.11v59.68c0,11.76-1.3,22.23-3.85,31.38-2.28,8.13-5.55,15.22-9.87,21.27-1.96,2.78-4.13,5.33-6.53,7.67-13.5,13.22-33.58,19.81-60.2,19.81s-46.68-6.49-60.18-19.51c-8.27-7.99-14.02-15.48-17.22-28.52,9.55-16.1,24.69-28.52,42.72-34.56v1.66c0,9.33.82,14.1,2.48,20.31,1.66,6.23,4.99,10.89,10.05,14,5.05,3.1,12.44,4.65,22.15,4.65s17.06-1.56,22.01-4.65c4.95-3.12,8.31-7.73,10.07-13.86,1.24-4.33,2.04-9.43,2.38-15.28.16-2.4.24-4.93.24-7.59v-31.44c4.83-1.3,9.59-2.96,14.22-4.91,12.4-5.25,22.81-12.24,31.54-20.11Z"/>
</svg>