<?xml version="1.0" encoding="UTF-8"?>
<svg id="Layer_1" data-name="Layer 1" xmlns="http://www.w3.org/2000/svg" viewBox="0 0 611.48 224.47">
  <defs>
    <style>
      .cls-1 {
        fill: #4794d0;
      }

      .cls-1, .cls-2 {
        stroke-width: 0px;
      }

      .cls-2 {
        fill: #fff;
      }
    </style>
  </defs>
  <g>
    <path class="cls-2" d="M303.7,178.76c-16.09,0-28.35-4.18-36.77-12.54-8.42-8.36-12.63-20.77-12.63-37.24V49.4c0-2.04,1.65-3.69,3.69-3.69h14.33c2.04,0,3.69,1.65,3.69,3.69v77.15c0,7.11.84,13.07,2.53,17.87,1.68,4.8,4.55,8.42,8.61,10.85,4.05,2.43,9.57,3.65,16.56,3.65s12.5-1.25,16.56-3.74c4.05-2.49,6.95-6.11,8.7-10.85,1.75-4.74,2.62-10.67,2.62-17.78V49.4c0-2.04,1.65-3.69,3.69-3.69h14.14c2.04,0,3.69,1.65,3.69,3.69v78.64c0,16.84-4.18,29.5-12.54,37.99-8.36,8.48-20.65,12.72-36.86,12.72Z"/>
    <path class="cls-2" d="M418.65,178.76c-7.79,0-14.54-1.26-20.26-3.77-5.72-2.51-10.4-6.03-14.04-10.55-3.65-4.52-6.35-9.64-8.1-15.36-1.76-5.71-2.64-11.65-2.64-17.81s.85-12.15,2.54-18c1.7-5.84,4.3-11.09,7.82-15.74,3.52-4.65,8.04-8.32,13.57-11.02,5.53-2.7,12.06-4.05,19.6-4.05s13.41,1.22,18.75,3.67c5.34,2.45,9.77,5.84,13.28,10.18,3.52,4.33,6.13,9.27,7.82,14.79,1.7,5.53,2.54,11.43,2.54,17.71,0,.88-.03,2.14-.09,3.77-.04,1.01-.12,2.02-.23,3.03-.12,1.07-1.05,1.87-2.13,1.87h-62.56c.5,7.41,3.02,13.07,7.54,16.96,4.52,3.9,10.3,5.84,17.34,5.84,5.15,0,9.86-.82,14.13-2.45,3.17-1.21,6.13-2.94,8.89-5.19,1.6-1.31,3.95-1.14,5.26.46l6.02,7.3c2.01,2.44,1.77,4.79.17,6.1-2.95,2.41-5.9,4.42-8.84,6.04-3.9,2.14-7.95,3.71-12.15,4.71-4.21,1-8.95,1.51-14.23,1.51ZM439,126.93c.25-1,.41-2.01.47-3.01.06-1,.09-2.01.09-3.02,0-2.76-.47-5.4-1.41-7.91-.94-2.51-2.36-4.74-4.24-6.69-1.89-1.95-4.21-3.52-6.97-4.71-2.77-1.19-5.91-1.79-9.42-1.79-4.9,0-9.02,1.07-12.34,3.2-3.33,2.14-5.91,4.87-7.73,8.2-1.82,3.33-2.92,6.94-3.3,10.84h51.63l-6.78,4.9Z"/>
    <path class="cls-2" d="M478.76,57.49v-.38c0-6.3,5.1-11.4,11.4-11.4h0c6.3,0,11.4,5.1,11.4,11.4v.38c0,6.3-5.1,11.4-11.4,11.4h0c-6.3,0-11.4-5.1-11.4-11.4ZM479.7,173.35v-86.9c0-1.27,1.03-2.29,2.29-2.29h16.34c1.27,0,2.29,1.03,2.29,2.29v86.9c0,2.05-1.66,3.72-3.72,3.72h-13.49c-2.05,0-3.72-1.66-3.72-3.72Z"/>
    <path class="cls-2" d="M524.93,173.35v-86.9c0-1.27,1.03-2.29,2.29-2.29h16.34c1.27,0,2.29,1.03,2.29,2.29v18.25l-3.77.94c1.63-5.4,4.02-9.8,7.16-13.19,3.14-3.39,6.81-5.9,11.02-7.54,4.21-1.63,8.64-2.45,13.29-2.45,10.43,0,18.56,2.99,24.4,8.95,5.84,5.97,8.76,14.48,8.76,25.53v56.4c0,2.05-1.66,3.72-3.72,3.72h-13.49c-2.05,0-3.72-1.66-3.72-3.72v-48.67c0-8.29-1.51-14.38-4.52-18.28-3.01-3.89-7.66-5.84-13.94-5.84-4.65,0-8.57,1.1-11.78,3.3-3.2,2.2-5.62,5.62-7.26,10.27-1.63,4.65-2.45,10.55-2.45,17.71v41.51c0,2.05-1.66,3.72-3.72,3.72h-13.49c-2.05,0-3.72-1.66-3.72-3.72Z"/>
  </g>
  <g>
    <path class="cls-1" d="M165.66,5.79v39.06c0,7.19-2.86,14.11-8.03,19.11-8.05,7.77-17.79,14.71-29.56,19.69-2.68,1.14-5.39,2.14-8.17,3.02v-35.11c0-25.27,20.49-45.76,45.76-45.76Z"/>
    <path class="cls-1" d="M4.84,147.71c-.06-1.56-.08-3.16-.08-4.77V2.84h3.02c23.6,0,42.74,19.13,42.74,42.74v68.06c0,3.35-2.16,6.3-5.33,7.36-15.7,5.28-29.57,14.6-40.35,26.71Z"/>
    <path class="cls-1" d="M165.66,81.82v59.68c0,11.76-1.3,22.23-3.85,31.38-2.28,8.13-5.55,15.22-9.87,21.27-1.96,2.78-4.13,5.33-6.53,7.67-13.5,13.22-33.58,19.81-60.2,19.81s-46.68-6.49-60.18-19.51c-8.27-7.99-14.02-15.48-17.22-28.52,9.55-16.1,24.69-28.52,42.72-34.56v1.66c0,9.33.82,14.1,2.48,20.31,1.66,6.23,4.99,10.89,10.05,14,5.05,3.1,12.44,4.65,22.15,4.65s17.06-1.56,22.01-4.65c4.95-3.12,8.31-7.73,10.07-13.86,1.24-4.33,2.04-9.43,2.38-15.28.16-2.4.24-4.93.24-7.59v-31.44c4.83-1.3,9.59-2.96,14.22-4.91,12.4-5.25,22.81-12.24,31.54-20.11Z"/>
  </g>
</svg>