<svg width="29" height="28" viewBox="0 0 29 28" fill="none" xmlns="http://www.w3.org/2000/svg">
<path d="M14.4251 0.00247469C14.4251 0.00247469 22.6824 -0.366642 27.0502 7.91114H13.721C13.721 7.91114 11.2056 7.82911 9.05923 10.8777C8.4372 12.156 7.78099 13.4752 8.52606 16.0659C7.45289 14.2545 2.83209 6.22277 2.83209 6.22277C2.83209 6.22277 6.08579 0.337414 14.4251 0.00247469Z" fill="#E16B5A"/>
<path d="M14.4251 0.00247469C14.2815 0.00931019 14.1448 0.0161457 14.0081 0.0298167C16.2365 0.193869 22.2586 1.2602 25.772 7.91114H27.0571C22.6755 -0.366642 14.4251 0.00247469 14.4251 0.00247469Z" fill="#CC6152"/>
<path d="M26.6196 21.0288C26.6196 21.0288 22.8123 28.3496 13.4408 27.9873C14.596 25.9913 20.1054 16.4627 20.1054 16.4627C20.1054 16.4627 21.4383 14.33 19.8662 10.9464C19.0664 9.77071 16.6466 8.54032 14.0286 7.88411C16.1408 7.86361 27.0229 7.88411 27.0229 7.88411C27.0229 7.88411 30.5022 13.6601 26.6196 21.0288Z" fill="#FFD464"/>
<path d="M27.0229 7.89059C27.0229 7.89059 21.4725 7.87691 17.5284 7.88375C21.3084 7.88375 25.8404 7.89059 25.8404 7.89059C25.8404 7.89059 29.3196 13.6529 25.4371 21.0284C25.4371 21.0284 21.951 27.7204 13.4408 27.9869C22.8123 28.3492 26.6196 21.0284 26.6196 21.0284C30.5022 13.6597 27.0229 7.89059 27.0229 7.89059Z" fill="#F2C95F"/>
<path d="M2.28526 21.083C2.28526 21.083 -2.16464 14.1313 2.83894 6.20898C3.99414 8.20495 9.50355 17.7336 9.50355 17.7336C9.50355 17.7336 10.6929 19.9483 14.4046 20.2833C15.8195 20.1807 17.296 20.0919 19.1758 18.1506C18.1368 19.9825 13.4818 27.9937 13.4818 27.9937C13.4818 27.9937 6.73517 28.1236 2.28526 21.083Z" fill="#74B340"/>
<path d="M20.7342 14.1178C20.7342 17.6244 17.8907 20.4611 14.3909 20.4611C10.8843 20.4611 8.04755 17.6244 8.04755 14.1178C8.04755 10.6111 10.8843 7.77441 14.3909 7.77441C17.8907 7.77441 20.7342 10.6111 20.7342 14.1178Z" fill="white"/>
<path d="M19.415 14.1178C19.415 16.893 17.1661 19.1488 14.3841 19.1488C11.6089 19.1488 9.35315 16.893 9.35315 14.1178C9.35315 11.3426 11.6089 9.08691 14.3841 9.08691C17.1661 9.08691 19.415 11.3358 19.415 14.1178Z" fill="#2995CC"/>
<path d="M14.3909 9.08691C14.2884 9.08691 14.1927 9.09375 14.0901 9.09375C16.7286 9.25097 18.8203 11.4383 18.8203 14.1178C18.8203 16.7973 16.7286 18.9847 14.0901 19.1419C14.1858 19.1488 14.2884 19.1488 14.3909 19.1488C17.1661 19.1488 19.4218 16.893 19.4218 14.1178C19.4218 11.3358 17.1661 9.08691 14.3909 9.08691Z" fill="#268CBF"/>
</svg>
