<svg width="28" height="28" viewBox="0 0 28 28" fill="none" xmlns="http://www.w3.org/2000/svg">
<path d="M26.2751 6.26327C28.8666 -0.458089 23.8341 0.00686801 23.8341 0.00686801C20.6068 0.00686801 16.5657 2.94704 16.5657 2.94704C16.5657 2.94704 11.7521 1.64789 6.93838 4.56071C1.69394 7.90429 1.86489 13.8462 1.86489 13.8462C6.13155 7.73336 12.0734 5.2513 12.0734 5.2513V5.65472C3.30762 11.6513 1.23582 20.4171 0.716166 22.2017C0.196508 23.9863 0.545235 28 4.2307 28C7.92301 28 11.67 25.0256 11.67 25.0256C11.67 25.0256 12.4768 25.1966 14.6717 25.1966C23.8956 25.1966 26.0905 17.0667 26.0905 17.0667H17.8991C17.8991 17.0667 17.3247 19.7197 14.3845 19.7197C10.3504 19.7197 10.576 15.5077 10.576 15.5077H26.1999C26.952 4.66327 17.4956 3.11114 17.4956 3.11114C17.4956 3.11114 20.8392 0.745332 23.7247 0.745332C28.299 0.745332 26.1384 6.106 26.1384 6.106L26.2751 6.26327ZM11.2051 24.9162C11.2051 24.9162 5.57087 28.335 3.04779 25.9692C1.69395 23.6034 3.89565 20.2462 3.89565 20.2462C3.89565 20.2462 5.75549 23.6923 11.2051 24.9162ZM17.9811 11.8291H10.5486C10.5486 11.8291 10.4529 8.20515 14.3572 8.20515C18.1315 8.20515 17.9811 11.8291 17.9811 11.8291Z" fill="#2995CC"/>
</svg>
