<svg width="29" height="28" viewBox="0 0 29 28" fill="none" xmlns="http://www.w3.org/2000/svg">
<path d="M14.4546 27.5991C21.8819 27.5991 27.9047 21.4188 27.9047 13.7995C27.9047 6.18033 21.8819 0 14.4546 0C7.0272 0 1.00446 6.18033 1.00446 13.7995C1.01131 21.4188 7.0272 27.5991 14.4546 27.5991Z" fill="#2179A6"/>
<path d="M27.7882 15.6018C27.7197 15.6566 27.6443 15.7115 27.5689 15.7594C27.6854 15.4374 27.795 15.0194 27.8841 14.5466C27.8978 14.3 27.9047 14.0465 27.9047 13.7998C27.9047 10.9152 27.0413 8.24298 25.5682 6.02985C24.2389 4.45393 22.4232 3.10413 20.0182 2.41895C22.6082 4.16616 23.5743 5.653 24.1841 6.9754C23.4921 6.24911 22.3067 5.49541 21.5119 5.42689C22.711 6.33818 24.7186 9.0515 24.5062 13.1626C24.1978 12.498 23.636 11.4633 23.2386 11.1002C23.6702 15.1359 23.2934 16.0061 23.033 17.075C22.9782 16.5816 22.8001 16.2116 22.7041 15.9855C22.7041 15.9855 22.6562 17.2463 21.8614 19.0414C21.2584 20.4049 20.628 20.8229 20.354 20.7749C20.2786 20.7681 20.2375 20.7338 20.2375 20.7338C20.258 20.5557 20.2717 20.3707 20.2306 20.2542C20.2306 20.2542 19.9771 20.3433 19.8127 20.5831C19.7442 20.679 19.6619 20.7749 19.5455 20.8572C19.5249 20.8709 19.7304 20.5899 19.7099 20.6036C19.614 20.6859 19.5043 20.7818 19.3947 20.8983C19.0042 21.3162 18.6479 21.7753 18.4629 21.6451C18.6342 21.5903 18.7712 21.371 18.8055 21.1518C18.6547 21.2614 18.2642 21.5629 17.3803 21.6931C17.024 21.7479 15.496 22.0288 13.4679 20.9942C13.7625 20.9599 14.2079 20.8503 14.5436 21.0559C14.2079 20.679 13.3925 20.7544 12.8033 20.5694C12.2962 20.4049 11.6316 19.6718 11.2479 19.3018C12.8101 19.6924 14.4683 19.4114 15.4275 18.74C16.3936 18.0616 16.9692 17.5614 17.4831 17.6848C17.9969 17.8013 18.3395 17.2737 17.9421 16.8009C17.5447 16.3281 16.5718 15.6978 15.2562 16.0335C14.249 16.2939 13.3857 17.1229 11.9742 16.5474C11.8851 16.5131 11.8029 16.472 11.707 16.424C11.6179 16.3761 12.0016 16.4789 11.9057 16.424C11.6316 16.3213 11.1383 16.0883 11.015 15.9992C10.9944 15.9855 11.2205 16.0403 11.1931 16.0266C9.85015 15.2113 9.93922 14.5604 9.93922 14.1561C9.93922 13.8341 10.1311 13.3955 10.4874 13.19C10.6792 13.2585 10.8025 13.327 10.8025 13.327C10.8025 13.327 10.7135 13.1831 10.6587 13.1146C10.6724 13.1078 10.6861 13.1078 10.6998 13.1009C10.8574 13.1557 11.4192 13.3955 11.7207 13.6354C12.077 12.9502 11.8098 11.8196 11.7755 11.7443C11.8509 11.3948 13.8722 10.3122 14.0229 10.1957C14.2353 10.0382 14.4477 9.79149 14.5779 9.51057C14.6738 9.33242 14.7423 9.07205 14.7286 8.70205C14.7149 8.43483 14.5573 8.27039 12.4059 8.29095C11.8166 8.2978 11.4329 7.9415 11.2 7.60576C11.152 7.5304 11.1109 7.46188 11.0766 7.40021C11.0287 7.30429 10.9944 7.22206 10.967 7.1604C11.2274 6.20114 12.0838 4.83764 12.8581 4.42653C11.4261 3.96746 9.672 5.283 9.17182 5.98874C9.17182 5.98874 9.17182 5.99559 9.16497 5.99559C7.90423 5.67355 6.83535 5.74893 5.93776 6.04355C5.27313 5.71467 4.85518 5.02263 4.61537 4.37856C4.00555 5.05004 3.46426 5.78318 2.99148 6.56429C2.93667 7.00966 2.90926 7.53725 2.95037 8.1402C2.95037 8.21557 2.96407 8.2978 2.95722 8.36632C2.61463 8.84594 2.39538 9.25705 2.31316 9.46261C1.90205 10.2917 1.47723 11.5593 1.13464 13.5394C1.13464 13.5394 1.3676 12.7926 1.82667 11.9498C1.49779 12.9844 1.23742 14.5741 1.36761 16.9311C1.37446 16.9653 1.38131 16.9996 1.38817 17.0339C1.41557 16.8077 1.49094 16.2733 1.63483 15.5881C1.7239 17.2394 2.10075 19.2607 3.35463 21.4601C3.47111 21.6657 3.615 21.9055 3.77944 22.1659C6.23924 25.4547 10.1037 27.5788 14.4546 27.5788C21.2858 27.5993 26.9249 22.3714 27.7882 15.6018Z" fill="#195D80"/>
<path d="M24.65 21.9734C25.4243 20.4797 26.4726 19.6095 27.0345 18.5818C27.7882 17.2114 29.2133 13.3538 28.1376 10.2431C28.6309 12.189 28.4733 14.1692 26.9043 15.1627C27.4113 13.7924 27.7265 10.7776 27.2058 8.0711C26.8632 6.31018 25.7874 4.72742 25.0885 4.24094C25.7326 4.73427 26.2534 6.51574 26.2397 7.3311C24.8898 5.00149 22.6836 2.7678 19.3536 1.8291C21.9436 3.57631 22.9097 5.06315 23.5195 6.38555C22.8275 5.65926 21.6421 4.90557 20.8404 4.83705C22.0395 5.74834 24.0471 8.46165 23.8347 12.5727C23.5263 11.9081 22.9645 10.8735 22.5671 10.5103C22.9988 14.5461 22.6219 15.4162 22.3615 16.4851C22.3067 15.9918 22.1286 15.6218 22.0326 15.3957C22.0326 15.3957 21.9847 16.6564 21.1899 18.4516C20.5869 19.8151 19.9566 20.2331 19.6825 20.1851C19.6071 20.1782 19.566 20.144 19.566 20.144C19.5865 19.9658 19.6003 19.7808 19.5591 19.6644C19.5591 19.6644 19.3056 19.7534 19.1412 19.9932C19.0727 20.0892 18.9904 20.1851 18.874 20.2673C18.8534 20.281 19.059 20.0001 19.0384 20.0138C18.9356 20.096 18.8329 20.1919 18.7232 20.3084C18.3327 20.7264 17.9764 21.1855 17.7914 21.0553C17.9627 21.0005 18.0997 20.7812 18.134 20.5619C17.9764 20.6716 17.5858 20.9731 16.7088 21.1032C16.3525 21.1581 14.8245 21.439 12.7964 20.4044C13.091 20.3701 13.5364 20.2605 13.8721 20.466C13.5364 20.0892 12.721 20.1645 12.1318 19.9795C11.6247 19.8151 10.9601 19.082 10.5764 18.712C12.1386 19.1025 13.7968 18.8216 14.756 18.1501C15.7221 17.4718 16.2977 16.9716 16.8116 17.0949C17.3255 17.2114 17.668 16.6838 17.2706 16.211C16.8732 15.7383 15.9003 15.1079 14.5847 15.4436C13.5775 15.704 12.7142 16.5331 11.3027 15.9575C11.2136 15.9233 11.1314 15.8822 11.0355 15.8342C10.9464 15.7862 11.3301 15.889 11.2342 15.8342C10.9601 15.7314 10.4668 15.4985 10.3435 15.4094C10.3229 15.3957 10.549 15.4505 10.5216 15.4368C9.17865 14.6214 9.26773 13.9705 9.26773 13.5662C9.26773 13.2442 9.45958 12.8057 9.81588 12.6001C10.0077 12.6687 10.1311 12.7372 10.1311 12.7372C10.1311 12.7372 10.042 12.5933 9.98717 12.5248C10.0009 12.5179 10.0146 12.5179 10.0283 12.5111C10.1859 12.5659 10.7477 12.8057 11.0492 13.0455C11.4055 12.3603 11.1383 11.2298 11.104 11.1544C11.104 11.1544 11.104 11.1544 11.104 11.1476C11.1794 10.7981 13.2007 9.71553 13.3514 9.59905C13.5638 9.44146 13.7762 9.1948 13.9064 8.91387C14.0023 8.73573 14.0708 8.47535 14.0571 8.10536C14.0434 7.83814 13.8858 7.67369 11.7344 7.69425C11.1451 7.7011 10.7614 7.34481 10.5285 7.00907C10.4805 6.9337 10.4394 6.86518 10.4051 6.80351C10.3572 6.70759 10.3229 6.62537 10.2955 6.5637C10.5559 5.60445 11.4123 4.24094 12.1866 3.82983C10.7546 3.37076 9.00051 4.68631 8.50032 5.39204L8.49347 5.39889C7.23274 5.07686 6.16386 5.15223 5.26627 5.44686C4.16998 4.90556 3.73147 3.37076 3.69036 2.71299C3.07369 3.1515 2.50499 4.91242 2.42962 5.26871C2.31999 5.82371 2.21036 6.58426 2.27203 7.55036C2.27203 7.62573 2.28574 7.70795 2.27889 7.77647C1.94315 8.2561 1.71704 8.6672 1.63481 8.87276C1.22371 9.70183 0.798889 10.9694 0.456299 12.9496C0.456299 12.9496 0.689267 12.2027 1.14834 11.36C0.8126 12.422 0.545379 14.0733 0.702971 16.5536C0.709822 16.4714 0.778335 15.8479 0.963334 15.0051C1.05241 16.6564 1.42926 18.6777 2.68314 20.8771C3.63554 22.5558 6.15016 26.4476 12.4607 27.9002C11.7686 27.6947 11.337 27.2836 11.337 27.2836C11.337 27.2836 13.694 28.0578 15.4138 27.9962C14.8725 27.9002 14.7697 27.633 14.7697 27.633C14.7697 27.633 20.8815 27.9893 22.9987 25.0293C22.2793 25.8926 20.443 26.1393 19.751 26.1462C20.8062 25.1527 23.1358 25.1801 25.6573 22.6312C27.0413 21.2334 27.1921 20.1714 27.3428 19.1779C27.1167 20.4866 25.9108 21.2677 24.65 21.9734Z" fill="#E78244"/>
<path d="M14.1256 8.77757C14.2216 8.5309 14.3312 7.95535 14.016 7.83887C13.7488 7.77035 13.5227 7.72924 13.091 7.73609C13.2349 7.77035 13.646 7.85257 13.7488 8.05127C13.9543 8.42812 13.4679 9.32571 13.3993 9.51756C13.6186 9.52442 14.0297 9.02423 14.1256 8.77757Z" fill="#144F66"/>
</svg>
